<svg width="5835" height="5474" viewBox="0 0 5835 5474" fill="none" xmlns="http://www.w3.org/2000/svg">
<g clip-path="url(#clip0_139_6)">
<rect width="5835" height="5474" fill="#F5F5F5"/>
<ellipse cx="4228" cy="4509" rx="790" ry="810" fill="#44E27A"/>
<ellipse cx="889.5" cy="2445.5" rx="715.5" ry="665.5" fill="#1876F2"/>
<g filter="url(#filter0_b_139_6)">
<rect x="965" y="856" width="3433" height="3653" rx="200" fill="#FFFCFC" fill-opacity="0.57"/>
<rect x="965.5" y="856.5" width="3432" height="3652" rx="199.5" stroke="white"/>
</g>
<path fill-rule="evenodd" clip-rule="evenodd" d="M3583.84 1535.89C3611.13 1505.42 3629.59 1468.07 3626.51 1426.23C3617.62 1305.65 3441.22 1332.18 3406.91 1393.03C3372.6 1453.89 3376.68 1608.25 3421.02 1619.13C3438.71 1623.47 3476.38 1612.84 3514.72 1590.85L3490.66 1752.87H3632.77L3583.84 1535.89Z" fill="#B28B67"/>
<path fill-rule="evenodd" clip-rule="evenodd" d="M3688.46 1386.09C3693.05 1381.76 3695.55 1375.58 3697.72 1369.72C3699.97 1363.62 3702.15 1357.47 3703.64 1351.13C3706.63 1338.45 3706.66 1323.88 3697.16 1314.04C3689.54 1306.15 3678.1 1302.61 3667.55 1301.84C3660.52 1301.33 3653.3 1302.26 3646.56 1304.37C3639.88 1306.46 3634.11 1310.63 3627.63 1313.22C3627.38 1299.56 3624.93 1285.27 3617.64 1273.61C3610.64 1262.39 3599.47 1256.1 3586.75 1254.43C3573.69 1252.72 3560.79 1255.63 3549.1 1261.64C3546.18 1263.15 3543.28 1264.73 3540.5 1266.51C3538.18 1268.01 3535.76 1269.81 3533.04 1270.42C3530 1271.1 3528.49 1269.43 3526.52 1267.32C3524.2 1264.84 3521.59 1262.67 3518.83 1260.73C3506.62 1252.2 3490.61 1248.69 3476.46 1253.8C3469.95 1256.16 3463.61 1260.17 3459.19 1265.68C3455.25 1270.6 3452.44 1278.41 3447 1281.83C3444.69 1283.29 3443.06 1281.36 3440.96 1279.94C3437.8 1277.8 3434.79 1275.43 3431.6 1273.35C3427.11 1270.43 3422.25 1268.24 3417.05 1267.09C3409.43 1265.42 3398.9 1265.81 3396.73 1275.3C3395.91 1278.87 3396.54 1282.68 3396.8 1286.27C3397.16 1291.21 3397.54 1296.14 3397.99 1301.06C3398.33 1304.8 3398.77 1308.42 3399.51 1312.09C3399.9 1314.05 3401.14 1317.7 3400.26 1319.66C3399.16 1322.11 3394.07 1320.71 3391.89 1320.8C3387.6 1320.97 3383.29 1321.68 3379.32 1323.43C3376.24 1324.78 3373.01 1326.77 3371.71 1330.13C3370.91 1332.19 3371.12 1334.31 3371.5 1336.43C3371.95 1338.97 3371.43 1340.32 3371.09 1342.89C3365.33 1340.19 3345.34 1334.19 3342.83 1344.02C3341.99 1347.3 3343.9 1351 3345.35 1353.76C3347.9 1358.6 3351.25 1363.03 3354.66 1367.25C3361.8 1376.06 3370.31 1383.66 3379.47 1390.15C3368.74 1394.69 3365.94 1408.09 3375.23 1416.07C3379.33 1419.59 3384.85 1420.37 3390.03 1420.15C3391.92 1420.07 3394.65 1419.37 3396.14 1419.69C3396.95 1419.86 3397.8 1420.5 3398.92 1420.57C3406.22 1421.05 3414.47 1419.38 3421.61 1417.83C3434.33 1415.09 3446.38 1409.35 3456.21 1400.61C3458.74 1398.37 3460.82 1397.08 3464.22 1397.12C3467.19 1397.14 3470.11 1397.92 3473.09 1397.99C3480.95 1398.18 3488.05 1394.52 3495.35 1392.09C3495.8 1401.48 3498.61 1411.82 3502.65 1420.27C3505.94 1427.16 3512.82 1428.16 3519.57 1428.77C3541.18 1430.7 3562.86 1428.54 3584.49 1428.57C3563.55 1433.07 3541.91 1434.93 3521.16 1440.23C3511.78 1442.63 3518.94 1448.64 3522.95 1452.81C3529.56 1459.68 3534.47 1468.19 3537.87 1477.15C3548.12 1464.45 3566.22 1456.08 3582.26 1459.98C3599.98 1464.29 3612.46 1487.1 3601.13 1503.49C3594.55 1513.01 3582.67 1516.69 3572.78 1520.78C3580.5 1528.41 3582.36 1539.67 3587 1549.17C3589.29 1553.85 3592.51 1559.14 3597.63 1560.77C3599.52 1561.38 3601.74 1561.43 3603.24 1562.9C3605.09 1564.72 3605.53 1566.75 3607.89 1568.31C3617.33 1574.56 3632.06 1574.07 3640.43 1565.93C3647.99 1558.56 3646.02 1546.91 3639.7 1539.44C3649.76 1535.45 3668.07 1530.33 3664.08 1515.42C3685.86 1514.05 3738.75 1480.43 3709.51 1455.87C3725.56 1447.24 3740.3 1426.15 3729.99 1407.56C3722.06 1393.25 3703.6 1386.85 3688.46 1386.09Z" fill="#191847"/>
<path fill-rule="evenodd" clip-rule="evenodd" d="M3889.61 2457.14H3432.18L3372.24 3155.78H4053.17L3889.61 2457.14Z" fill="#C5CFD6"/>
<path fill-rule="evenodd" clip-rule="evenodd" d="M3889.61 2457.14H3748.93L3664.72 3155.78H4053.17L3889.61 2457.14Z" fill="black" fill-opacity="0.1"/>
<path fill-rule="evenodd" clip-rule="evenodd" d="M2910.67 2337.44C2861.9 2309.58 2780.07 2345.38 2780.13 2385.23C2780.3 2504.48 2894.66 3066.48 2900.64 3102.01C2906.61 3137.53 2970.57 3146.92 2974.3 3102.12C2980.23 3030.85 2991.24 2784.1 2980.22 2669.9C2975.67 2622.75 2970.77 2577.86 2965.95 2537.8C3025.97 2640.93 3118.78 2788.57 3244.39 2980.74L3312.58 2951.1C3259.03 2783.22 3215.12 2664.7 3180.85 2595.55C3122.18 2477.14 3067.16 2375.73 3044 2340.01C3007.58 2283.83 2944.17 2303.43 2910.67 2337.44Z" fill="#B28B67"/>
<path fill-rule="evenodd" clip-rule="evenodd" d="M3307.7 2857.87L3073.65 2330.3C3017.58 2244.47 2860.38 2347.76 2879.5 2397.54C2922.91 2510.54 3143.69 2876.4 3156.62 2910.07L3307.7 2857.87Z" fill="#1F28CF"/>
<path fill-rule="evenodd" clip-rule="evenodd" d="M3337.8 2909.45C3349.23 2915.69 3356.23 2921.3 3358.81 2926.26C3361.96 2932.3 3364.87 2942.13 3367.55 2955.73C3355.92 2962.77 3251.35 3026 3053.86 3145.43C3037.26 3134.13 3037.41 3122.52 3054.3 3110.61C3071.19 3098.69 3085.18 3088.7 3096.25 3080.63L3221.7 2953.33C3224.11 2950.88 3227.79 2949.65 3229.92 2950.58C3229.96 2950.59 3229.99 2950.61 3230.03 2950.63L3246.52 2958.65C3265.16 2953.39 3279.56 2947.68 3289.72 2941.53C3297.98 2936.54 3308.34 2927.63 3320.81 2914.82L3320.81 2914.82C3325.59 2909.9 3332.96 2907.38 3337.27 2909.2C3337.45 2909.28 3337.63 2909.36 3337.8 2909.45Z" fill="#E4E4E4"/>
<path fill-rule="evenodd" clip-rule="evenodd" d="M2989.29 3073.53C2995.92 3090.35 2999.23 3102.94 2999.23 3111.3C2999.23 3121.46 2997.45 3136.28 2993.89 3155.77C2981.51 3155.77 2870.19 3155.77 2659.93 3155.77C2651.25 3128.47 2656.26 3113.74 2674.96 3111.56C2693.66 3109.38 2709.19 3107.42 2721.56 3105.66L2876.78 3039.82C2879.77 3038.55 2883.27 3039.83 2884.6 3042.67C2884.62 3042.72 2884.64 3042.77 2884.67 3042.82L2894.64 3065.85C2911.95 3073.53 2926.02 3077.37 2936.84 3077.37C2945.63 3077.37 2957.78 3073.99 2973.27 3067.24L2973.27 3067.24C2979.21 3064.64 2986.24 3067.13 2988.97 3072.78C2989.09 3073.03 2989.2 3073.28 2989.29 3073.53Z" fill="#E4E4E4"/>
<path fill-rule="evenodd" clip-rule="evenodd" d="M2763.74 2425.77C2763.74 2575.45 2838.45 2924.61 2838.49 2957.57L2999.23 2957.68C2975.7 2646.14 2967.36 2488.69 2974.2 2485.33C2984.46 2480.3 3394.91 2524.32 3518 2524.32C3695.51 2524.32 3768.94 2417.81 3774.9 2220.5H3423.27C3351.67 2227.79 2978.21 2299.47 2839.52 2324.11C2780.14 2334.65 2763.74 2384.54 2763.74 2425.77Z" fill="#2B44FF"/>
<path fill-rule="evenodd" clip-rule="evenodd" d="M3368.48 1869.49L3162.95 1762.38C3128.78 1723.77 3095.1 1693.77 3061.93 1672.41C3051.8 1668.38 3034.07 1665.94 3050.65 1693.94C3067.22 1721.93 3083.34 1752.09 3074.89 1760.72C3066.45 1769.34 3045.39 1757.29 3035.31 1771.62C3028.6 1781.18 3064.57 1796.27 3143.24 1816.9L3292.58 1947L3368.48 1869.49ZM3046.59 1959.86L2956.31 1912.67C2943.65 1866.81 2928.5 1843.73 2910.89 1843.45C2897.35 1837.45 2920.92 1895.41 2895.27 1890.38C2869.61 1885.36 2806.99 1841.04 2796.2 1850.04C2780.24 1863.35 2794.47 1904.22 2811.24 1924.55C2842.59 1962.55 2868.54 1975.55 2932.68 1992.57C2966.21 2001.46 3002.47 2019.3 3041.45 2046.07L3046.59 1959.86Z" fill="#997659"/>
<path fill-rule="evenodd" clip-rule="evenodd" d="M3468.59 1845.63C3396.6 1844.91 3300.61 1830.44 3198.18 1768.58L3157.95 1853.93C3228.61 1920.65 3327.95 1975.47 3414.81 1973.15C3483.27 1971.32 3518.25 1892.53 3468.59 1845.63Z" fill="#2026A2"/>
<path fill-rule="evenodd" clip-rule="evenodd" d="M3371.64 1982.52C3295.22 2000.66 3167.06 1979.27 2987.17 1918.36C2942.55 2006.2 2921.92 2068.82 2925.29 2106.22C3079.61 2182.93 3211.87 2217.12 3320.84 2219.38C3317.38 2280.91 3325.25 2339.45 3351.69 2392.94C3406.04 2502.91 3724.3 2401.07 3831.31 2421.11C3898.32 2214.03 3768.75 2129.87 3768.65 1997.37C3768.53 1852.26 3646.09 1628.91 3628.07 1628.91H3463.78C3454.71 1739.73 3409.08 1861.86 3371.64 1982.52Z" fill="#1F28CF"/>
<path fill-rule="evenodd" clip-rule="evenodd" d="M1517.58 801.367C1488.15 762.229 1469.47 721.737 1476.14 688.231C1495.37 591.69 1698.19 701.936 1733.53 770.025C1768.87 838.114 1752.74 965.356 1700.46 952.334C1679.61 947.14 1636.66 919.44 1593.76 881.887L1609.75 1029.58L1444.77 958.66L1517.58 801.367Z" fill="#D4A181"/>
<path fill-rule="evenodd" clip-rule="evenodd" d="M1616.23 814.26C1596.89 829.443 1571.42 836.231 1547.5 826.039C1502.06 806.68 1473.47 751.675 1477.45 707.336C1477.59 705.778 1477.78 704.25 1478 702.752C1427.93 704.665 1386.92 733.017 1323.32 705.921C1236.8 669.057 1213.09 535.942 1333.97 587.447C1416.18 622.474 1455.89 647.841 1489.66 674.722C1497.71 664.496 1509.19 657.901 1522.7 655.638C1526 654.596 1530.93 654.355 1537.21 654.864C1541.06 655.067 1545.02 655.583 1549.07 656.424C1570.55 660.135 1601.33 669.408 1635.41 683.09C1641.77 685.645 1648.01 688.258 1654.09 690.906C1656.14 669.195 1683.73 662.662 1715.8 676.324C1747.93 690.013 1772.38 718.79 1770.42 740.601C1768.52 761.693 1742.62 768.545 1711.85 756.592C1693.98 752.793 1671.21 745.889 1646.11 736.378C1647.98 743.607 1648.67 751.206 1647.95 759.159C1647.32 766.181 1645.51 773.142 1642.73 779.808C1637.7 773.125 1630.71 767.182 1623.35 764.048C1602.77 755.28 1587.42 760.669 1586.32 772.872C1584.93 788.358 1597.09 805.173 1616.23 814.26V814.26Z" fill="#191847"/>
<path fill-rule="evenodd" clip-rule="evenodd" d="M1286.09 1529.16L1482.65 2255.91L1575.1 2801.57H1667.89L1575.26 1529.16H1286.09Z" fill="#BA8B72"/>
<path fill-rule="evenodd" clip-rule="evenodd" d="M1197.75 1529.16C1211.47 1906.7 1206.06 2112.63 1202.99 2146.93C1199.92 2181.23 1182.49 2410.96 1063.75 2813.08H1160.26C1317.52 2427.31 1372.42 2197.58 1390.45 2146.93C1408.49 2096.27 1461.76 1890.35 1539.53 1529.16H1197.75Z" fill="#D4A181"/>
<path fill-rule="evenodd" clip-rule="evenodd" d="M1281.86 1529.16C1332.99 1779.24 1421.41 2178.42 1547.14 2726.72H1682.86C1692.89 2163.95 1650.24 1793.55 1576.4 1529.16H1281.86Z" fill="#69A1AC"/>
<path fill-rule="evenodd" clip-rule="evenodd" d="M1197.09 1529.16C1210.52 1906.7 1175.71 2278.66 1067.88 2732.6H1212.68C1370.23 2352.59 1483.16 1982.47 1560.33 1529.16H1197.09Z" fill="#89C5CC"/>
<path fill-rule="evenodd" clip-rule="evenodd" d="M1050 2887.93L1055.33 2795.81C1086.51 2805.6 1125.56 2801.76 1172.48 2784.3C1222.94 2822.64 1286.46 2848.83 1363.03 2862.85L1363.03 2862.85C1368.88 2863.92 1372.8 2869.87 1371.81 2876.14C1371.74 2876.55 1371.66 2876.95 1371.55 2877.34L1364.19 2905.2H1172.48H1060.65L1050 2887.93Z" fill="#191847"/>
<path fill-rule="evenodd" clip-rule="evenodd" d="M1554.42 2887.93L1559.74 2795.81C1590.92 2805.6 1629.97 2801.76 1676.9 2784.3C1727.35 2822.64 1790.87 2848.83 1867.45 2862.85L1867.45 2862.85C1873.29 2863.92 1877.22 2869.87 1876.22 2876.14C1876.16 2876.55 1876.07 2876.95 1875.97 2877.34L1868.6 2905.2H1676.9H1565.07L1554.42 2887.93Z" fill="#191847"/>
<path fill-rule="evenodd" clip-rule="evenodd" d="M1644.91 1160.14L1849.79 1141.73C1884.34 1122.46 1918.2 1109.75 1951.36 1103.61C1961.44 1103.68 1978.95 1107.39 1961.98 1123.95C1945.01 1140.51 1928.44 1158.91 1936.56 1168.3C1944.68 1177.69 1965.7 1174.97 1975.29 1189.32C1981.68 1198.89 1945.9 1199.26 1867.95 1190.44L1717.87 1244.54L1644.91 1160.14ZM1959.84 1332.4L2049.84 1324.21C2063.37 1292.48 2078.82 1279.3 2096.17 1284.65C2109.64 1284.26 2085.09 1321.95 2110.47 1326.16C2135.86 1330.36 2198.55 1315.65 2208.96 1326.08C2224.38 1341.5 2209.42 1368.84 2192.43 1379.37C2160.69 1399.05 2134.83 1400.97 2071.27 1393.93C2038.04 1390.25 2001.92 1392.67 1962.91 1401.19L1959.84 1332.4Z" fill="#D4A181"/>
<path fill-rule="evenodd" clip-rule="evenodd" d="M1585 1158.75C1646.95 1178.23 1729.84 1195.03 1819.27 1181.38L1852.07 1250.59C1789.88 1276.36 1703.25 1286.08 1628.57 1260.4C1569.72 1240.16 1541.29 1176.86 1585 1158.75V1158.75Z" fill="#2026A2"/>
<path fill-rule="evenodd" clip-rule="evenodd" d="M1642.89 1331.31C1720.3 1371.57 1851.29 1396.52 2035.84 1406.18C2079.3 1493.13 2098.9 1551.4 2094.63 1581.01C1935.76 1592.81 1800.3 1577.01 1689.29 1542.72C1691.43 1594.4 1682.1 1639.87 1653.97 1675.03C1596.15 1747.32 1274.36 1558.08 1164.94 1539.04C1101.36 1346.72 1235.19 1320.59 1238.28 1211.79C1241.66 1092.65 1371.38 949.823 1389.72 955.8L1557.02 1010.31C1563.76 1104.34 1607.47 1219.79 1642.89 1331.31V1331.31Z" fill="#1F28CF"/>
<path d="M4399.9 2786C4379.4 2786 4363 2808.97 4363 2837.69C4363 2866.4 4379.4 2889.37 4399.9 2889.37C4420.39 2889.37 4436.79 2866.4 4436.79 2837.69C4436.79 2808.97 4420.39 2786 4399.9 2786Z" fill="white"/>
<path d="M6626 3501L6616 3495.23V3506.77L6626 3501ZM4364 2837.69C4364 2823.51 4368.05 2810.8 4374.58 2801.66C4381.1 2792.51 4390.05 2787 4399.9 2787V2785C4389.24 2785 4379.75 2790.97 4372.95 2800.49C4366.15 2810.02 4362 2823.15 4362 2837.69H4364ZM4399.9 2787C4409.74 2787 4418.69 2792.51 4425.22 2801.66C4431.74 2810.8 4435.79 2823.51 4435.79 2837.69H4437.79C4437.79 2823.15 4433.64 2810.02 4426.85 2800.49C4420.05 2790.97 4410.55 2785 4399.9 2785V2787ZM4435.79 2837.69C4435.79 2851.86 4431.74 2864.57 4425.22 2873.72C4418.69 2882.86 4409.74 2888.37 4399.9 2888.37V2890.37C4410.55 2890.37 4420.05 2884.4 4426.85 2874.88C4433.64 2865.36 4437.79 2852.23 4437.79 2837.69H4435.79ZM4399.9 2888.37C4390.05 2888.37 4381.1 2882.86 4374.58 2873.72C4368.05 2864.57 4364 2851.86 4364 2837.69H4362C4362 2852.23 4366.15 2865.36 4372.95 2874.88C4379.75 2884.4 4389.24 2890.37 4399.9 2890.37V2888.37ZM4436.79 2838.69H5492.95V2836.69H4436.79V2838.69ZM5511.95 2857.69V3481H5513.95V2857.69H5511.95ZM5532.95 3502H6617V3500H5532.95V3502ZM5511.95 3481C5511.95 3492.6 5521.35 3502 5532.95 3502V3500C5522.45 3500 5513.95 3491.49 5513.95 3481H5511.95ZM5492.95 2838.69C5503.44 2838.69 5511.95 2847.19 5511.95 2857.69H5513.95C5513.95 2846.09 5504.55 2836.69 5492.95 2836.69V2838.69Z" fill="#D9D9D9"/>
<path d="M3856.36 1028.68V1155.04H3938.37" stroke="#545454" stroke-width="50" stroke-linecap="round" stroke-linejoin="round"/>
<path d="M3856.36 1155.04C3888.17 1111.06 3917.63 1061.25 3962.23 1051.59C3988.64 1045.86 4015.54 1053.52 4038.89 1073.4C4062.23 1093.28 4080.75 1124.31 4091.65 1161.82" stroke="#545454" stroke-width="50" stroke-linecap="round" stroke-linejoin="round"/>
<path d="M4102.37 1407.78V1281.41H4020.36" stroke="#545454" stroke-width="50" stroke-linecap="round" stroke-linejoin="round"/>
<path d="M4102.41 1281.41C4070.6 1325.4 4041.14 1375.2 3996.55 1384.87C3970.13 1390.59 3943.23 1382.94 3919.89 1363.06C3896.54 1343.17 3878.03 1312.14 3867.12 1274.63" stroke="#545454" stroke-width="50" stroke-linecap="round" stroke-linejoin="round"/>
</g>
<defs>
<filter id="filter0_b_139_6" x="956" y="847" width="3451" height="3671" filterUnits="userSpaceOnUse" color-interpolation-filters="sRGB">
<feFlood flood-opacity="0" result="BackgroundImageFix"/>
<feGaussianBlur in="BackgroundImageFix" stdDeviation="4.5"/>
<feComposite in2="SourceAlpha" operator="in" result="effect1_backgroundBlur_139_6"/>
<feBlend mode="normal" in="SourceGraphic" in2="effect1_backgroundBlur_139_6" result="shape"/>
</filter>
<clipPath id="clip0_139_6">
<rect width="5835" height="5474" fill="white"/>
</clipPath>
</defs>
</svg>
